<svg width="75" height="75" viewBox="0 0 75 75" fill="none" xmlns="http://www.w3.org/2000/svg">
<path d="M41.116 28.884C40.9999 28.7679 40.9078 28.6301 40.845 28.4784C40.7822 28.3268 40.7498 28.1642 40.7498 28C40.7498 27.8358 40.7822 27.6733 40.845 27.5216C40.9078 27.3699 40.9999 27.2321 41.116 27.116C41.2321 26.9999 41.3699 26.9078 41.5216 26.845C41.6733 26.7822 41.8358 26.7498 42 26.7498C42.1642 26.7498 42.3267 26.7822 42.4784 26.845C42.6301 26.9078 42.7679 26.9999 42.884 27.116L49.884 34.116C50.0001 34.2321 50.0922 34.3699 50.1551 34.5216C50.2179 34.6733 50.2502 34.8358 50.2502 35C50.2502 35.1642 50.2179 35.3268 50.1551 35.4784C50.0922 35.6301 50.0001 35.7679 49.884 35.884L42.884 42.884C42.6495 43.1185 42.3316 43.2502 42 43.2502C41.6684 43.2502 41.3505 43.1185 41.116 42.884C40.8815 42.6496 40.7498 42.3316 40.7498 42C40.7498 41.6684 40.8815 41.3505 41.116 41.116L45.982 36.25H37C31.063 36.25 26.25 41.063 26.25 47C26.25 47.3315 26.1183 47.6495 25.8839 47.8839C25.6495 48.1183 25.3315 48.25 25 48.25C24.6685 48.25 24.3505 48.1183 24.1161 47.8839C23.8817 47.6495 23.75 47.3315 23.75 47C23.75 39.682 29.682 33.75 37 33.75H45.982L41.116 28.884Z" fill="#7DB301"/>
<circle cx="37.5" cy="37.5" r="36" stroke="#7DB301" stroke-width="3"/>
</svg>
