<svg width="362" height="351" viewBox="0 0 362 351" fill="none" xmlns="http://www.w3.org/2000/svg" xmlns:xlink="http://www.w3.org/1999/xlink">
<g clip-path="url(#clip0_0_1)">
<path d="M66.5214 67.8692C64.3836 76.4452 55.6947 81.6585 47.131 79.5206C38.5547 77.3829 33.3415 68.6944 35.4794 60.1307C37.6171 51.5547 46.2934 46.3415 54.8696 48.4794C63.4334 50.6046 68.6592 59.2931 66.5214 67.8692Z" fill="url(#paint0_linear_0_1)"/>
<path d="M58.6181 62.0062C58.9306 59.8812 57.3181 58.7312 55.0931 57.9687L55.8181 55.0812L54.0681 54.6437L53.3681 57.4562C52.9056 57.3437 52.4306 57.2312 51.9556 57.1312L52.6556 54.3062L50.9056 53.8687L50.1931 56.7437C49.8056 56.6562 49.4306 56.5687 49.0681 56.4812V56.4687L46.6431 55.8687L46.1806 57.7437C46.1806 57.7437 47.4806 58.0437 47.4556 58.0562C48.1681 58.2312 48.2931 58.7062 48.2681 59.0812L47.4431 62.3687C47.4931 62.3812 47.5556 62.3937 47.6306 62.4312C47.5681 62.4187 47.5056 62.4062 47.4431 62.3812L46.2931 66.9812C46.2056 67.1937 45.9806 67.5187 45.4931 67.3937C45.5056 67.4187 44.2181 67.0812 44.2181 67.0812L43.3431 69.0937L45.6306 69.6687C46.0556 69.7812 46.4681 69.8812 46.8806 69.9937L46.1556 72.9062L47.9056 73.3437L48.6306 70.4562C49.1056 70.5812 49.5806 70.7062 50.0306 70.8187L49.3181 73.6937L51.0681 74.1312L51.7931 71.2187C54.7931 71.7812 57.0431 71.5562 57.9806 68.8437C58.7431 66.6687 57.9431 65.4062 56.3681 64.5812C57.5306 64.3187 58.3931 63.5562 58.6181 62.0062ZM54.6056 67.6312C54.0681 69.8062 50.3931 68.6312 49.2056 68.3312L50.1681 64.4687C51.3556 64.7687 55.1806 65.3562 54.6056 67.6312ZM55.1556 61.9687C54.6556 63.9562 51.6056 62.9437 50.6181 62.6937L51.4931 59.1937C52.4806 59.4437 55.6681 59.9062 55.1556 61.9687Z" fill="white"/>
</g>
<path d="M346 139C342.836 139 339.742 139.938 337.111 141.696C334.48 143.455 332.429 145.953 331.218 148.877C330.007 151.801 329.69 155.018 330.307 158.121C330.925 161.225 332.449 164.076 334.686 166.314C336.924 168.551 339.775 170.075 342.879 170.693C345.982 171.31 349.199 170.993 352.123 169.782C355.047 168.571 357.545 166.52 359.304 163.889C361.062 161.258 362 158.164 362 155C362 150.757 360.314 146.687 357.314 143.686C354.313 140.686 350.243 139 346 139ZM345.651 143.904H349.096C349.166 143.904 349.236 143.92 349.299 143.952C349.362 143.983 349.417 144.029 349.46 144.085C349.502 144.141 349.531 144.206 349.545 144.276C349.558 144.345 349.555 144.416 349.536 144.484L346.829 153.708L349.369 152.932L348.825 154.779L346.26 155.525L344.596 161.144H353.497C353.568 161.144 353.637 161.161 353.7 161.193C353.763 161.225 353.818 161.27 353.861 161.327C353.903 161.383 353.932 161.449 353.945 161.518C353.957 161.587 353.954 161.659 353.935 161.727L353.159 164.393C353.121 164.52 353.044 164.631 352.938 164.711C352.833 164.79 352.704 164.833 352.572 164.833H338.977L341.275 157.071L338.733 157.844L339.293 156.029L341.84 155.256L345.069 144.349C345.105 144.222 345.181 144.109 345.286 144.029C345.391 143.949 345.52 143.905 345.652 143.904" fill="white"/>
<path d="M240.005 12.024C240.005 12.8573 237.021 13.5547 233.021 13.7307L233.024 13.732C232.358 13.7684 231.691 13.7831 231.024 13.776C229.985 13.776 229.251 13.7453 228.992 13.7333C224.984 13.556 221.992 12.8587 221.992 12.024C221.992 11.1893 224.984 10.4907 228.992 10.312V13.0373C229.253 13.0573 230.004 13.1013 231.041 13.1013C232.285 13.1013 232.908 13.048 233.021 13.0387V10.3147C237.021 10.492 240.005 11.1907 240.005 12.024ZM246.925 12.752L231.165 27.8533C231.121 27.8961 231.061 27.92 230.999 27.92C230.937 27.92 230.878 27.8961 230.833 27.8533L215.075 12.752C215.038 12.717 215.013 12.6714 215.004 12.6216C214.995 12.5717 215.002 12.5203 215.024 12.4747L220.859 0.218663C220.878 0.177518 220.909 0.142758 220.947 0.118442C220.986 0.0941249 221.03 0.0812536 221.076 0.0813297H240.927C240.972 0.0820045 241.015 0.0952282 241.053 0.119502C241.091 0.143775 241.121 0.178127 241.14 0.218663L246.976 12.4747C246.998 12.5203 247.005 12.5717 246.996 12.6216C246.987 12.6714 246.962 12.717 246.925 12.752ZM240.955 12.2133C240.955 11.1387 237.552 10.24 233.025 10.0307V7.59333H238.607V3.87333H223.411V7.59333H228.991V10.032C224.455 10.24 221.044 11.1387 221.044 12.2147C221.044 13.292 224.455 14.188 228.991 14.3987V22.2147H233.024V14.396C237.549 14.1867 240.955 13.2893 240.955 12.2133Z" fill="white"/>
<g filter="url(#filter0_d_0_1)">
<rect x="4" y="79" width="274.455" height="264" fill="url(#pattern0_0_1)" shape-rendering="crispEdges"/>
</g>
<defs>
<filter id="filter0_d_0_1" x="0" y="79" width="282.455" height="272" filterUnits="userSpaceOnUse" color-interpolation-filters="sRGB">
<feFlood flood-opacity="0" result="BackgroundImageFix"/>
<feColorMatrix in="SourceAlpha" type="matrix" values="0 0 0 0 0 0 0 0 0 0 0 0 0 0 0 0 0 0 127 0" result="hardAlpha"/>
<feOffset dy="4"/>
<feGaussianBlur stdDeviation="2"/>
<feComposite in2="hardAlpha" operator="out"/>
<feColorMatrix type="matrix" values="0 0 0 0 0 0 0 0 0 0 0 0 0 0 0 0 0 0 0.25 0"/>
<feBlend mode="normal" in2="BackgroundImageFix" result="effect1_dropShadow_0_1"/>
<feBlend mode="normal" in="SourceGraphic" in2="effect1_dropShadow_0_1" result="shape"/>
</filter>
<pattern id="pattern0_0_1" patternContentUnits="objectBoundingBox" width="1" height="1">
<use xlink:href="#image0_0_1" transform="matrix(0.0028557 0 0 0.00296879 -0.161616 -0.0525053)"/>
</pattern>
<linearGradient id="paint0_linear_0_1" x1="1634.14" y1="47.232" x2="1634.14" y2="3247.68" gradientUnits="userSpaceOnUse">
<stop stop-color="#F9AA4B"/>
<stop offset="1" stop-color="#F7931A"/>
</linearGradient>
<clipPath id="clip0_0_1">
<rect width="32" height="32" fill="white" transform="translate(35 48)"/>
</clipPath>

</defs>
</svg>
