<svg width="398" height="382" viewBox="0 0 398 382" fill="none" xmlns="http://www.w3.org/2000/svg" xmlns:xlink="http://www.w3.org/1999/xlink">
<g clip-path="url(#clip0_0_1)">
<path d="M74.5214 71.8692C72.3836 80.4452 63.6947 85.6585 55.131 83.5206C46.5547 81.3829 41.3415 72.6944 43.4794 64.1307C45.6171 55.5547 54.2934 50.3415 62.8696 52.4794C71.4334 54.6046 76.6592 63.2931 74.5214 71.8692Z" fill="url(#paint0_linear_0_1)"/>
<path d="M66.6181 66.0062C66.9306 63.8812 65.3181 62.7312 63.0931 61.9687L63.8181 59.0812L62.0681 58.6437L61.3681 61.4562C60.9056 61.3437 60.4306 61.2312 59.9556 61.1312L60.6556 58.3062L58.9056 57.8687L58.1931 60.7437C57.8056 60.6562 57.4306 60.5687 57.0681 60.4812V60.4687L54.6431 59.8687L54.1806 61.7437C54.1806 61.7437 55.4806 62.0437 55.4556 62.0562C56.1681 62.2312 56.2931 62.7062 56.2681 63.0812L55.4431 66.3687C55.4931 66.3812 55.5556 66.3937 55.6306 66.4312C55.5681 66.4187 55.5056 66.4062 55.4431 66.3812L54.2931 70.9812C54.2056 71.1937 53.9806 71.5187 53.4931 71.3937C53.5056 71.4187 52.2181 71.0812 52.2181 71.0812L51.3431 73.0937L53.6306 73.6687C54.0556 73.7812 54.4681 73.8812 54.8806 73.9937L54.1556 76.9062L55.9056 77.3437L56.6306 74.4562C57.1056 74.5812 57.5806 74.7062 58.0306 74.8187L57.3181 77.6937L59.0681 78.1312L59.7931 75.2187C62.7931 75.7812 65.0431 75.5562 65.9806 72.8437C66.7431 70.6687 65.9431 69.4062 64.3681 68.5812C65.5306 68.3187 66.3931 67.5562 66.6181 66.0062ZM62.6056 71.6312C62.0681 73.8062 58.3931 72.6312 57.2056 72.3312L58.1681 68.4687C59.3556 68.7687 63.1806 69.3562 62.6056 71.6312ZM63.1556 65.9687C62.6556 67.9562 59.6056 66.9437 58.6181 66.6937L59.4931 63.1937C60.4806 63.4437 63.6681 63.9062 63.1556 65.9687Z" fill="white"/>
</g>
<g clip-path="url(#clip1_0_1)">
<path d="M382 198C378.836 198 375.742 198.938 373.111 200.696C370.48 202.455 368.429 204.953 367.218 207.877C366.007 210.801 365.69 214.018 366.307 217.121C366.925 220.225 368.449 223.076 370.686 225.314C372.924 227.551 375.775 229.075 378.879 229.693C381.982 230.31 385.199 229.993 388.123 228.782C391.047 227.571 393.545 225.52 395.304 222.889C397.062 220.258 398 217.164 398 214C398 209.757 396.314 205.687 393.314 202.686C390.313 199.686 386.243 198 382 198ZM381.651 202.904H385.096C385.166 202.904 385.236 202.92 385.299 202.952C385.362 202.983 385.417 203.029 385.46 203.085C385.502 203.141 385.531 203.206 385.545 203.276C385.558 203.345 385.555 203.416 385.536 203.484L382.829 212.708L385.369 211.932L384.825 213.779L382.26 214.525L380.596 220.144H389.497C389.568 220.144 389.637 220.161 389.7 220.193C389.763 220.225 389.818 220.27 389.861 220.327C389.903 220.383 389.932 220.449 389.945 220.518C389.957 220.587 389.954 220.659 389.935 220.727L389.159 223.393C389.121 223.52 389.044 223.631 388.938 223.711C388.833 223.79 388.704 223.833 388.572 223.833H374.977L377.275 216.071L374.733 216.844L375.293 215.029L377.84 214.256L381.069 203.349C381.105 203.222 381.181 203.109 381.286 203.029C381.391 202.949 381.52 202.905 381.652 202.904" fill="#345D9D"/>
</g>
<g clip-path="url(#clip2_0_1)">
<path d="M31.9982 259.11L16 272.985V265.165L31.9982 259.11ZM23.5191 263.987L18.3835 265.925V268.433L23.5191 263.987Z" fill="#5A9DED"/>
<path d="M0.00183105 259.11L16 272.985V265.165L0.00183105 259.11ZM8.48086 263.987L13.6165 265.925V268.433L8.48086 263.987Z" fill="#53D3E0"/>
<path d="M18.0295 252.766L28.6252 256.304L29.0008 256.993L27.7392 257.653L18.0295 254.404V252.766Z" fill="#D995D1"/>
<path d="M13.9775 252.766L3.38181 256.304L3.00623 256.993L4.26783 257.653L13.9775 254.404V252.766Z" fill="#A6E276"/>
<path d="M16 241L31.9982 257.427L16 263.468V241ZM18.3627 246.27V260.937L28.8143 256.992L18.3627 246.27Z" fill="#FF9C92"/>
<path d="M16 241L0.00183105 257.427L16 263.468V241ZM13.6373 246.27V260.937L3.18572 256.993L13.6373 246.27Z" fill="#FFE94D"/>
</g>
<path d="M261.005 14.024C261.005 14.8573 258.021 15.5547 254.021 15.7307L254.024 15.732C253.358 15.7684 252.691 15.7831 252.024 15.776C250.985 15.776 250.251 15.7453 249.992 15.7333C245.984 15.556 242.992 14.8587 242.992 14.024C242.992 13.1893 245.984 12.4907 249.992 12.312V15.0373C250.253 15.0573 251.004 15.1013 252.041 15.1013C253.285 15.1013 253.908 15.048 254.021 15.0387V12.3147C258.021 12.492 261.005 13.1907 261.005 14.024ZM267.925 14.752L252.165 29.8533C252.121 29.8961 252.061 29.92 251.999 29.92C251.937 29.92 251.878 29.8961 251.833 29.8533L236.075 14.752C236.038 14.717 236.013 14.6714 236.004 14.6216C235.995 14.5717 236.002 14.5203 236.024 14.4747L241.859 2.21866C241.878 2.17752 241.909 2.14276 241.947 2.11844C241.986 2.09412 242.03 2.08125 242.076 2.08133H261.927C261.971 2.082 262.015 2.09523 262.053 2.1195C262.091 2.14378 262.121 2.17813 262.14 2.21866L267.976 14.4747C267.998 14.5203 268.005 14.5717 267.996 14.6216C267.987 14.6714 267.962 14.717 267.925 14.752ZM261.955 14.2133C261.955 13.1387 258.552 12.24 254.025 12.0307V9.59333H259.607V5.87333H244.411V9.59333H249.991V12.032C245.455 12.24 242.044 13.1387 242.044 14.2147C242.044 15.292 245.455 16.188 249.991 16.3987V24.2147H254.024V16.396C258.549 16.1867 261.955 15.2893 261.955 14.2133Z" fill="white"/>
<g filter="url(#filter0_d_0_1)">
<rect x="13" y="106" width="370" height="268" fill="url(#pattern0_0_1)" shape-rendering="crispEdges"/>
</g>
<defs>
<filter id="filter0_d_0_1" x="9" y="106" width="378" height="276" filterUnits="userSpaceOnUse" color-interpolation-filters="sRGB">
<feFlood flood-opacity="0" result="BackgroundImageFix"/>
<feColorMatrix in="SourceAlpha" type="matrix" values="0 0 0 0 0 0 0 0 0 0 0 0 0 0 0 0 0 0 127 0" result="hardAlpha"/>
<feOffset dy="4"/>
<feGaussianBlur stdDeviation="2"/>
<feComposite in2="hardAlpha" operator="out"/>
<feColorMatrix type="matrix" values="0 0 0 0 0 0 0 0 0 0 0 0 0 0 0 0 0 0 0.25 0"/>
<feBlend mode="normal" in2="BackgroundImageFix" result="effect1_dropShadow_0_1"/>
<feBlend mode="normal" in="SourceGraphic" in2="effect1_dropShadow_0_1" result="shape"/>
</filter>
<pattern id="pattern0_0_1" patternContentUnits="objectBoundingBox" width="1" height="1">
<use xlink:href="#image0_0_1" transform="matrix(0.00204082 0 0 0.00292398 -0.116327 -0.0935672)"/>
</pattern>
<linearGradient id="paint0_linear_0_1" x1="1642.14" y1="51.232" x2="1642.14" y2="3251.68" gradientUnits="userSpaceOnUse">
<stop stop-color="#F9AA4B"/>
<stop offset="1" stop-color="#F7931A"/>
</linearGradient>
<clipPath id="clip0_0_1">
<rect width="32" height="32" fill="white" transform="translate(43 52)"/>
</clipPath>
<clipPath id="clip1_0_1">
<rect width="32" height="32" fill="white" transform="translate(366 198)"/>
</clipPath>
<clipPath id="clip2_0_1">
<rect width="32" height="32" fill="white" transform="translate(0 241)"/>
</clipPath>
</defs>
</svg>
