<svg width="33" height="29" viewBox="0 0 33 29" fill="none" xmlns="http://www.w3.org/2000/svg">
<g filter="url(#filter0_d_20_226)">
<path d="M4.45898 11.3965C3.84863 12.0068 3.84863 12.998 4.45898 13.6084L10.709 19.8584C11.3193 20.4688 12.3105 20.4688 12.9209 19.8584C13.5312 19.248 13.5312 18.2568 12.9209 17.6465L9.33691 14.0625H27.4375C28.3018 14.0625 29 13.3643 29 12.5C29 11.6357 28.3018 10.9375 27.4375 10.9375H9.33691L12.9209 7.35352C13.5312 6.74316 13.5312 5.75195 12.9209 5.1416C12.3105 4.53125 11.3193 4.53125 10.709 5.1416L4.45898 11.3916V11.3965Z" fill="#797979"/>
</g>
<defs>
<filter id="filter0_d_20_226" x="0" y="0" width="33" height="33" filterUnits="userSpaceOnUse" color-interpolation-filters="sRGB">
<feFlood flood-opacity="0" result="BackgroundImageFix"/>
<feColorMatrix in="SourceAlpha" type="matrix" values="0 0 0 0 0 0 0 0 0 0 0 0 0 0 0 0 0 0 127 0" result="hardAlpha"/>
<feOffset dy="4"/>
<feGaussianBlur stdDeviation="2"/>
<feComposite in2="hardAlpha" operator="out"/>
<feColorMatrix type="matrix" values="0 0 0 0 0 0 0 0 0 0 0 0 0 0 0 0 0 0 0.25 0"/>
<feBlend mode="normal" in2="BackgroundImageFix" result="effect1_dropShadow_20_226"/>
<feBlend mode="normal" in="SourceGraphic" in2="effect1_dropShadow_20_226" result="shape"/>
</filter>
</defs>
</svg>
